HIERARCHY
ROOT Hips
{
	OFFSET 0.00 0.00 0.00
	CHANNELS 6 Xposition Yposition Zposition Xrotation Yrotation Zrotation
	JOINT Spine
	{
		OFFSET 0.00000 4.88528 0.00000
		CHANNELS 3 Xrotation Yrotation Zrotation
		JOINT Head
		{
			OFFSET 0.00000 16.49416 0.00000
			CHANNELS 3 Xrotation Yrotation Zrotation
			End Site
			{
				OFFSET 0.00000 4.52755 0.00000
			}
		}
		JOINT LeftShoulder
		{
			OFFSET 0.00000 10.66345 0.00000
			CHANNELS 3 Xrotation Yrotation Zrotation
			JOINT LeftArm
			{
				OFFSET 7.53191 0.00000 0.00000
				CHANNELS 3 Xrotation Yrotation Zrotation
				JOINT LeftForeArm
				{
					OFFSET 10.22920 0.00000 0.00000
					CHANNELS 3 Yrotation Zrotation Xrotation
					JOINT LeftHand
					{
						OFFSET 8.67349 0.00000 0.00000
						CHANNELS 3 Xrotation Yrotation Zrotation
						JOINT LeftHandThumb1
						{
							OFFSET 0.00000 0.00000 0.00000
							CHANNELS 3 Xrotation Zrotation Yrotation
							End Site
							{
								OFFSET 0.00000 0.00000 3.93700
							}
						}
						End Site
						{
							OFFSET 3.93700 0.00000 0.00000
						}
					}
				}
			}
		}
		JOINT RightShoulder
		{
			OFFSET 0.00000 10.66345 0.00000
			CHANNELS 3 Xrotation Yrotation Zrotation
			JOINT RightArm
			{
				OFFSET -7.53191 0.00000 0.00000
				CHANNELS 3 Xrotation Yrotation Zrotation
				JOINT RightForeArm
				{
					OFFSET -10.22920 0.00000 0.00000
					CHANNELS 3 Yrotation Zrotation Xrotation
					JOINT RightHand
					{
						OFFSET -8.67349 0.00000 0.00000
						CHANNELS 3 Xrotation Yrotation Zrotation
						JOINT RightHandThumb1
						{
							OFFSET 0.00000 0.00000 0.00000
							CHANNELS 3 Xrotation Zrotation Yrotation
							End Site
							{
								OFFSET 0.00000 0.00000 3.93700
							}
						}
						End Site
						{
							OFFSET -3.93700 0.00000 0.00000
						}
					}
				}
			}
		}
	}
	JOINT LeftUpLeg
	{
		OFFSET 2.67219 0.00000 0.00000
		CHANNELS 3 Xrotation Yrotation Zrotation
		JOINT LeftLeg
		{
			OFFSET 0.00000 -16.26339 0.00000
			CHANNELS 3 Xrotation Yrotation Zrotation
			JOINT LeftFoot
			{
				OFFSET 0.00000 -14.32816 0.00000
				CHANNELS 3 Xrotation Yrotation Zrotation
				JOINT LeftToeBase
				{
					OFFSET 0.00000 -1.30219 4.85985
					CHANNELS 3 Xrotation Yrotation Zrotation
					End Site
					{
						OFFSET 0.00000 0.00000 2.95275
					}
				}
			}
		}
	}
	JOINT RightUpLeg
	{
		OFFSET -2.67219 0.00000 0.00000
		CHANNELS 3 Xrotation Yrotation Zrotation
		JOINT RightLeg
		{
			OFFSET 0.00000 -16.26339 0.00000
			CHANNELS 3 Xrotation Yrotation Zrotation
			JOINT RightFoot
			{
				OFFSET 0.00000 -14.32816 0.00000
				CHANNELS 3 Xrotation Yrotation Zrotation
				JOINT RightToeBase
				{
					OFFSET 0.00000 -1.30219 4.85985
					CHANNELS 3 Xrotation Yrotation Zrotation
					End Site
					{
						OFFSET 0.00000 0.00000 2.95275
					}
				}
			}
		}
	}
}
MOTION
Frames: 15
Frame Time: 0.008333
 2.1326 32.7920 -7.8401 12.8966 1.4548 -0.9148 -16.0566 -6.1972 -2.0876 12.2354 -1.0147 0.3709 29.9726 32.4483 20.9103 -70.6595 -2.6922 -28.3052 2.1687 0.0000 6.3127 0.4321 -5.8266 4.2488 33.1476 -0.0000 26.2537 -8.5354 -4.0437 -31.0276 -19.0141 -2.8290 40.4481 -1.1545 -0.0000 7.4344 0.0492 5.3777 -0.5254 32.8623 0.0000 -24.3270 -6.2577 -2.5813 2.3253 -3.8123 -0.0000 -0.0000 -2.1909 12.9978 -14.0807 -8.4135 -0.0000 -0.0000 -6.7043 -2.2484 1.3984 -3.5501 0.0000 -0.0000 -5.9125 -9.5305 2.2548 0.8256 0.0000 -0.0000
 2.1321 32.7917 -7.8409 12.8968 1.4551 -0.9123 -16.0358 -6.2094 -2.0872 12.2041 -1.0023 0.3722 29.9697 32.4619 20.9091 -70.6704 -2.6851 -28.3209 2.1835 0.0000 6.3585 0.4335 -5.8558 4.2414 33.1476 -0.0000 26.2537 -8.5116 -4.0359 -31.0154 -19.0092 -2.8421 40.4322 -1.1548 -0.0000 7.5920 0.0442 5.3196 -0.4763 32.8623 0.0000 -24.3270 -6.2617 -2.5769 2.3237 -3.8029 0.0000 -0.0000 -2.2063 12.9814 -14.1116 -8.4134 0.0000 0.0000 -6.7046 -2.2317 1.3963 -3.5531 -0.0000 0.0000 -5.9219 -9.5507 2.2621 0.8238 0.0000 -0.0000
 2.1330 32.7910 -7.8424 12.8937 1.4521 -0.9061 -16.0089 -6.2040 -2.0815 12.1716 -1.0373 0.3716 29.9657 32.4523 20.9102 -70.6392 -2.6861 -28.3280 2.1784 0.0000 6.3350 0.4324 -5.8628 4.2253 33.1476 -0.0000 26.2537 -8.4906 -4.0497 -31.0155 -19.0161 -2.8513 40.4358 -1.1494 -0.0000 7.6039 0.0472 5.3146 -0.5093 32.8623 0.0000 -24.3270 -6.2635 -2.5733 2.3140 -3.7976 0.0000 -0.0000 -2.2225 12.9869 -14.1042 -8.4226 0.0000 0.0000 -6.7088 -2.2430 1.3832 -3.5332 0.0000 -0.0000 -5.9427 -9.4842 2.1993 0.7840 -0.0000 0.0000
 2.1320 32.7905 -7.8443 12.9044 1.4542 -0.9135 -15.9958 -6.1993 -2.0686 12.1401 -1.0642 0.3745 29.9549 32.4507 20.9188 -70.6526 -2.6766 -28.3483 2.1843 0.0000 6.3220 0.4310 -5.8633 4.2114 33.1476 -0.0000 26.2537 -8.4766 -4.0631 -31.0120 -19.0164 -2.8711 40.4318 -1.1468 -0.0000 7.5774 0.0478 5.3254 -0.5148 32.8623 0.0000 -24.3270 -6.2736 -2.5855 2.3216 -3.8085 -0.0000 0.0000 -2.2232 13.0123 -14.0716 -8.3683 -0.0000 -0.0000 -6.7234 -2.2449 1.3926 -3.5276 -0.0000 -0.0000 -5.9637 -9.4878 2.1941 0.8189 -0.0000 0.0000
 2.1322 32.7900 -7.8458 12.9108 1.4464 -0.9070 -15.9836 -6.1863 -2.0717 12.1266 -1.0846 0.3921 29.9562 32.4486 20.9251 -70.6520 -2.6651 -28.3605 2.1687 0.0000 6.3722 0.4264 -5.8784 4.1559 33.1476 -0.0000 26.2537 -8.4423 -4.0873 -30.9967 -19.0387 -2.8829 40.4232 -1.1324 -0.0000 7.5677 0.0419 5.3223 -0.4515 32.8623 0.0000 -24.3270 -6.2830 -2.5820 2.3139 -3.7996 -0.0000 0.0000 -2.2333 13.0120 -14.0774 -8.4463 -0.0000 0.0000 -6.7322 -2.2396 1.3853 -3.5282 -0.0000 0.0000 -5.9737 -9.4862 2.2183 0.8336 -0.0000 -0.0000
 2.1312 32.7892 -7.8472 12.9124 1.4507 -0.9136 -15.9631 -6.2024 -2.0569 12.1115 -1.0990 0.3756 29.9662 32.4541 20.9135 -70.6994 -2.6327 -28.3677 2.1815 0.0000 6.3536 0.4254 -5.8915 4.1377 33.1476 -0.0000 26.2537 -8.4600 -4.0794 -31.0089 -19.0238 -2.8973 40.4430 -1.1290 -0.0000 7.5507 0.0391 5.3315 -0.4204 32.8623 0.0000 -24.3270 -6.2871 -2.5773 2.3193 -3.8004 0.0000 0.0000 -2.2401 13.0132 -14.0711 -8.4169 -0.0000 0.0000 -6.7335 -2.2458 1.3942 -3.5298 0.0000 0.0000 -5.9751 -9.4887 2.2067 0.8242 -0.0000 0.0000
 2.1309 32.7888 -7.8493 12.9252 1.4563 -0.9132 -15.9596 -6.2029 -2.0569 12.1118 -1.1256 0.3892 29.9670 32.4561 20.9155 -70.6864 -2.6463 -28.3894 2.1789 0.0000 6.3743 0.4226 -5.8277 4.1543 33.1476 -0.0000 26.2537 -8.4551 -4.0934 -30.9951 -19.0501 -2.9142 40.4332 -1.1344 -0.0000 7.5683 0.0370 5.3313 -0.3980 32.8623 0.0000 -24.3270 -6.3038 -2.5754 2.3183 -3.8004 -0.0000 0.0000 -2.2416 13.0022 -14.0721 -8.4403 0.0000 0.0000 -6.7446 -2.2481 1.3921 -3.5379 0.0000 -0.0000 -5.9818 -9.4933 2.2273 0.7885 0.0000 -0.0000
 2.1296 32.7885 -7.8518 12.9354 1.4631 -0.9115 -15.9417 -6.2058 -2.0698 12.0780 -1.0375 0.3786 29.9204 32.4649 20.9508 -70.6996 -2.6221 -28.4179 2.1755 0.0000 6.4077 0.4193 -5.7969 4.1439 33.1476 -0.0000 26.2537 -8.5174 -4.0923 -30.9687 -18.9983 -2.8892 40.4243 -1.1510 -0.0000 7.5559 0.0314 5.3482 -0.3371 32.8623 0.0000 -24.3270 -6.3193 -2.5542 2.3176 -3.8031 -0.0000 0.0000 -2.2456 12.9912 -14.0862 -8.3216 -0.0000 -0.0000 -6.7522 -2.2518 1.3923 -3.5508 -0.0000 -0.0000 -5.9862 -9.4978 2.2309 0.8304 -0.0000 -0.0000
 2.1295 32.7880 -7.8533 12.9467 1.4650 -0.9097 -15.9398 -6.2175 -2.0698 12.0951 -1.0077 0.3795 29.9324 32.4779 20.9350 -70.7180 -2.6325 -28.4302 2.1870 0.0000 6.3791 0.4180 -5.7803 4.1435 33.1476 -0.0000 26.2537 -8.5236 -4.0834 -30.9640 -19.0061 -2.9099 40.4243 -1.1543 -0.0000 7.5587 0.0293 5.3273 -0.3158 32.8623 0.0000 -24.3270 -6.3223 -2.5654 2.3155 -3.8268 -0.0000 0.0000 -2.2407 13.0163 -14.1012 -8.2904 -0.0000 -0.0000 -6.7628 -2.2702 1.3903 -3.5544 0.0000 -0.0000 -5.9867 -9.4783 2.2159 0.8135 0.0000 -0.0000
 2.1282 32.7877 -7.8550 12.9585 1.4636 -0.9167 -15.9393 -6.2139 -2.0600 12.1197 -1.0267 0.3886 29.9330 32.4665 20.9420 -70.7033 -2.6261 -28.4370 2.1786 0.0000 6.3659 0.4137 -5.7673 4.1096 33.1476 -0.0000 26.2537 -8.5205 -4.1127 -30.9669 -19.0217 -2.8858 40.4442 -1.1727 -0.0000 7.5338 0.0293 5.3187 -0.3160 32.8623 0.0000 -24.3270 -6.3287 -2.5682 2.3237 -3.8345 0.0000 0.0000 -2.2385 12.9933 -14.0615 -8.4199 0.0000 -0.0000 -6.7689 -2.2685 1.4058 -3.5771 -0.0000 0.0000 -5.9769 -9.5393 2.2874 0.8193 -0.0000 -0.0000
 2.1282 32.7875 -7.8572 12.9728 1.4702 -0.9100 -15.9460 -6.2250 -2.0644 12.1585 -1.0226 0.3839 29.9171 32.4488 20.9464 -70.6903 -2.6290 -28.4354 2.1855 0.0000 6.3416 0.4037 -5.7235 4.0413 33.1476 -0.0000 26.2537 -8.5374 -4.0913 -30.9691 -19.0089 -2.9012 40.4626 -1.1858 -0.0000 7.4085 0.0370 5.3033 -0.4006 32.8623 0.0000 -24.3270 -6.3523 -2.5531 2.3180 -3.8247 0.0000 -0.0000 -2.2426 12.9691 -14.1134 -8.3913 -0.0000 -0.0000 -6.7837 -2.2905 1.3924 -3.5730 -0.0000 0.0000 -5.9873 -9.4752 2.2441 0.7999 -0.0000 -0.0000
 2.1268 32.7874 -7.8593 12.9932 1.4711 -0.9174 -15.9559 -6.2305 -2.0593 12.2000 -1.0261 0.4022 29.8966 32.4415 20.9599 -70.6775 -2.6341 -28.4449 2.2002 0.0000 6.3294 0.4055 -5.7208 4.0610 33.1476 -0.0000 26.2537 -8.5415 -4.0932 -30.9690 -19.0110 -2.9149 40.4687 -1.1839 -0.0000 7.5272 0.0374 5.3501 -0.4008 32.8623 0.0000 -24.3270 -6.3658 -2.5752 2.3277 -3.8440 -0.0000 -0.0000 -2.2441 12.9975 -14.1053 -8.3334 0.0000 -0.0000 -6.7998 -2.3063 1.4073 -3.5945 0.0000 -0.0000 -5.9649 -9.5163 2.2893 0.7257 -0.0000 -0.0000
 2.1267 32.7867 -7.8607 13.0068 1.4707 -0.9144 -15.9694 -6.2468 -2.0586 12.2703 -0.9837 0.3799 29.9199 32.4483 20.9385 -70.6847 -2.6523 -28.4496 2.2249 0.0000 6.3373 0.4114 -5.7505 4.0985 33.1476 -0.0000 26.2537 -8.5244 -4.0801 -30.9754 -19.0321 -2.9343 40.4855 -1.1905 -0.0000 7.5327 0.0356 5.3118 -0.3849 32.8623 0.0000 -24.3270 -6.3779 -2.5774 2.3256 -3.8533 0.0000 -0.0000 -2.2449 13.0070 -14.1127 -8.2718 -0.0000 0.0000 -6.8151 -2.3183 1.3988 -3.5865 0.0000 -0.0000 -5.9962 -9.4595 2.2870 0.8523 0.0000 0.0000
 2.1264 32.7865 -7.8629 13.0213 1.4676 -0.9131 -15.9765 -6.2417 -2.0578 12.3294 -0.9803 0.3916 29.9036 32.4349 20.9541 -70.6837 -2.6374 -28.4584 2.2172 0.0000 6.3491 0.4091 -5.7595 4.0699 33.1476 -0.0000 26.2537 -8.5200 -4.0831 -30.9738 -19.0571 -2.9652 40.4898 -1.1832 -0.0000 7.5477 0.0393 5.3347 -0.4222 32.8623 0.0000 -24.3270 -6.3910 -2.5923 2.3262 -3.8581 -0.0000 -0.0000 -2.2385 13.0048 -14.1202 -8.3965 -0.0000 0.0000 -6.8288 -2.3050 1.3971 -3.5960 -0.0000 -0.0000 -5.9927 -9.4696 2.2713 0.8100 0.0000 -0.0000
 2.1253 32.7862 -7.8649 13.0320 1.4625 -0.9207 -15.9796 -6.2450 -2.0476 12.3943 -0.9755 0.3975 29.9300 32.4403 20.9388 -70.7183 -2.6373 -28.4690 2.2286 0.0000 6.3744 0.4136 -5.7924 4.0914 33.1476 -0.0000 26.2537 -8.5346 -4.0704 -30.9751 -19.0581 -2.9776 40.4969 -1.1886 -0.0000 7.5794 0.0416 5.3469 -0.4469 32.8623 0.0000 -24.3270 -6.4024 -2.5968 2.3362 -3.8586 -0.0000 0.0000 -2.2554 13.0195 -14.1353 -8.3672 -0.0000 -0.0000 -6.8435 -2.2999 1.4073 -3.5935 -0.0000 -0.0000 -5.9899 -9.4743 2.2741 0.8126 0.0000 -0.0000
